<svg xmlns="http://www.w3.org/2000/svg" width="403" height="383" viewBox="0 0 402.7 382.7"><path d="M188.3 0.6c31.8-2.6 62.6 4 85.7 12.4 47.8 17.2 82.5 48.9 105.8 90.1 12 21.3 19.7 46.5 22.3 75.6 2.8 32.5-4.3 61-14 83.5 -10 23.2-22.8 42.6-39 58.8 -32.8 32.8-74.7 56.9-134.4 61.3 -31.7 2.3-61.8-4.1-85.5-12.6 -48-17.4-82.6-48-106.1-89.8 -12-21.4-19.9-46-22.5-75.3 -2.9-31.8 4.2-61.4 13.7-83.8 10.3-24.1 22.4-42.2 39-58.8C86.1 29.1 127.4 5.6 188.3 0.6zM114.7 32.7c-10.5 5.3-20.1 10.5-28.8 17C68.6 62.7 53.1 78.6 41 96.5c-5.9 8.7-11.2 19.1-15.7 30.2 -8.6 21.4-15.3 49-12.6 78.6 5 54.6 29.9 92.2 62.9 120.3 16.2 13.8 35.1 25.4 58.3 33.5 22.3 7.9 50.8 14 80.2 11.5 55.4-4.5 94.8-27.2 125.3-58 22-22.3 40-52.8 46.4-90.9 2.2-13.1 3.8-27.9 2.5-42.9C383.5 124.5 358.3 85.8 326 58c-15.9-13.7-35.8-25.7-58.2-33.5 -21.9-7.6-50.7-13.7-80.5-11.3C158.7 15.6 134.9 22.5 114.7 32.7z"/><path d="M197.1 28.3c25.6-1.2 51.1 5.4 69.8 13.2 38.6 16.1 67.3 43.6 85.2 80.2 13.3 27.3 20.3 67 12.1 104.4 -7.2 33.1-24.2 59.6-44.2 79.7 -28 28-65.9 46.2-116.8 48.6 -26.3 1.3-50.4-5.7-69.5-13.5 -19.9-8.1-36-19.3-50.3-32.4 -14.3-13.1-26.1-28.6-35.4-47.3 -13.3-26.6-21.3-68-12.4-104.7 8.1-33.2 23.7-58.6 44.5-79.4 13.6-13.5 29.9-24.9 48.9-33.8 18.5-8.6 41.4-15.1 67.6-15.1C196.7 28.3 196.9 28.3 197.1 28.3zM180.6 45.4c-40.2 5-67.3 23-90.1 45.9 -20.9 20.9-39.7 55.5-40.7 95.3 -1.1 44.7 14.6 76.4 34.6 100.8 17.3 21.2 41.9 38.4 72 47.3 4 1.2 10.4 3.8 13.7 3.3 2.9-0.4 6.1-5 8.8-7.7 14.5-14.3 27-27.8 40.9-41.8 6-6 11.2-11.5 16.5-16.8 11-11 22.2-22.4 26.9-39.3 2.6-9.4 3.3-20.1 1.4-29.7 -3-14.8-9.1-23.1-17.3-31.3 -1.8-1.8-5.6-6.9-8.5-6.9 -2.3 0.1-5.3 4.2-7.4 6.3 -7.2 7.2-13.6 14.2-20.3 20.9 -25.6 25.6-49.3 51-74.7 76.4 -2 2-5.2 6.1-7.7 6 -3.2-0.1-6.8-6.2-9.3-9.1 -9-10.3-16.4-22.1-21.7-34.3 -7.4-16.9-12.7-38.4-11-63.7 1.1-15.8 5.4-31.4 11-44 15.3-34.7 42.4-60.1 78.3-73.1 2.9-1.1 7.1-1.2 9.1-4.4C183 44.9 182 45.2 180.6 45.4zM283.4 316.6c17.8-11.9 32.9-26.4 44.2-44.8 14.7-24 26.9-56.7 22.3-95.1 -4.3-35.3-17.4-60-36.8-82.2 -13.4-15.3-31.1-28.6-51.4-37.6 -6.6-2.9-15.4-6.9-22.5-7.4 -2.5-0.2-8.2 6.5-10.7 9.1 -9.3 9.3-18.2 18.7-26.9 27.5 -11.2 11.3-25.8 25-36 36.8 -10.4 12.1-20 29.9-20.9 51.9 -0.7 17.7 4.1 32.2 11.8 42.6 1.7 2.3 6.6 8.7 9.9 8.5 2.7-0.1 5.6-4.8 7.4-6.6 2.7-2.7 4.4-4.3 7.1-7.1 30.8-31 61-63.2 92-94.2 2-2 4.9-5.5 7.1-5.5 3.5 0.1 9.5 7.4 11.5 9.3 23.9 22.7 44.8 57.5 39.3 105.8 -2.7 23.9-12.5 43.8-24.2 59.3 -10.5 14-23.8 25.6-38.2 34.9 -2.1 1.4-5.1 2.5-4.9 4.7C270.9 324.4 277.5 320.5 283.4 316.6z"/></svg>