<?xml version="1.0" encoding="utf-8"?>
<!-- Generator: Adobe Illustrator 13.0.0, SVG Export Plug-In . SVG Version: 6.00 Build 14948)  -->
<!DOCTYPE svg PUBLIC "-//W3C//DTD SVG 1.1//EN" "http://www.w3.org/Graphics/SVG/1.1/DTD/svg11.dtd">
<svg version="1.1" id="Layer_1" xmlns="http://www.w3.org/2000/svg" xmlns:xlink="http://www.w3.org/1999/xlink" x="0px" y="0px"
	 width="402.694px" height="382.704px" viewBox="0 0 402.694 382.704" enable-background="new 0 0 402.694 382.704"
	 xml:space="preserve">
<g>
	<path fill-rule="evenodd" clip-rule="evenodd" d="M188.31,0.575c31.802-2.611,62.61,4.042,85.726,12.364
		c47.762,17.194,82.45,48.934,105.783,90.122c12.047,21.266,19.743,46.488,22.256,75.56c2.812,32.535-4.311,61.008-14.014,83.527
		c-9.998,23.202-22.849,42.631-39.016,58.799c-32.782,32.783-74.712,56.885-134.358,61.271c-31.735,2.335-61.77-4.069-85.451-12.639
		c-48.019-17.376-82.577-48.034-106.058-89.847c-12.012-21.391-19.885-46.012-22.531-75.285
		c-2.876-31.829,4.222-61.399,13.738-83.802c10.252-24.137,22.399-42.182,39.016-58.799C86.148,29.1,127.445,5.572,188.31,0.575z
		 M114.673,32.722c-10.529,5.293-20.148,10.467-28.85,17.036C68.636,62.731,53.091,78.641,41.037,96.467
		c-5.905,8.733-11.191,19.052-15.661,30.224c-8.551,21.371-15.349,48.995-12.639,78.582c4.998,54.581,29.889,92.22,62.92,120.346
		c16.246,13.833,35.143,25.373,58.25,33.521c22.328,7.874,50.809,13.956,80.23,11.541c55.368-4.547,94.849-27.205,125.292-57.976
		c22.049-22.286,39.982-52.82,46.435-90.946c2.222-13.13,3.817-27.878,2.472-42.862C383.457,124.528,358.25,85.825,325.965,58
		c-15.868-13.676-35.831-25.725-58.249-33.521c-21.914-7.62-50.704-13.712-80.506-11.265
		C158.706,15.554,134.938,22.534,114.673,32.722z"/>
	<path fill-rule="evenodd" clip-rule="evenodd" d="M197.102,28.326c25.608-1.22,51.101,5.389,69.789,13.188
		c38.586,16.103,67.327,43.585,85.177,80.23c13.313,27.333,20.271,67.006,12.089,104.409c-7.231,33.063-24.194,59.64-44.236,79.681
		c-28.033,28.033-65.913,46.211-116.774,48.633c-26.298,1.253-50.375-5.667-69.514-13.463
		c-19.918-8.113-35.983-19.279-50.281-32.422c-14.295-13.141-26.129-28.592-35.444-47.259
		c-13.279-26.611-21.328-67.957-12.364-104.685c8.098-33.176,23.723-58.617,44.512-79.406c13.55-13.55,29.937-24.943,48.907-33.795
		c18.466-8.618,41.379-15.112,67.591-15.112C196.735,28.326,196.919,28.335,197.102,28.326z M180.616,45.361
		c-40.231,5.022-67.283,23.046-90.122,45.885c-20.867,20.867-39.709,55.452-40.665,95.343c-1.07,44.679,14.615,76.373,34.62,100.838
		c17.341,21.206,41.912,38.38,71.987,47.259c4.043,1.193,10.35,3.798,13.738,3.297c2.901-0.429,6.084-5.028,8.792-7.693
		c14.521-14.29,27.012-27.836,40.94-41.764c6.006-6.007,11.249-11.524,16.484-16.761c11.027-11.026,22.235-22.385,26.928-39.291
		c2.617-9.43,3.283-20.13,1.373-29.674c-2.969-14.83-9.09-23.137-17.31-31.323c-1.849-1.841-5.606-6.941-8.518-6.869
		c-2.319,0.059-5.3,4.201-7.419,6.32c-7.217,7.216-13.631,14.182-20.332,20.882c-25.576,25.576-49.324,50.973-74.735,76.383
		c-1.966,1.967-5.221,6.134-7.693,6.045c-3.181-0.112-6.804-6.164-9.342-9.066c-8.98-10.268-16.368-22.113-21.706-34.346
		c-7.396-16.949-12.691-38.386-10.99-63.745c1.062-15.836,5.422-31.362,10.99-43.961c15.334-34.697,42.354-60.076,78.307-73.086
		c2.935-1.062,7.062-1.186,9.067-4.396C183.015,44.892,182.043,45.183,180.616,45.361z M283.377,316.551
		c17.784-11.909,32.945-26.392,44.236-44.786c14.745-24.022,26.903-56.659,22.256-95.067c-4.276-35.337-17.382-59.963-36.818-82.153
		c-13.369-15.265-31.096-28.579-51.38-37.643c-6.553-2.927-15.45-6.946-22.531-7.418c-2.533-0.169-8.195,6.548-10.715,9.067
		c-9.343,9.342-18.24,18.673-26.928,27.476c-11.181,11.333-25.835,24.952-35.993,36.818c-10.367,12.109-20,29.863-20.882,51.93
		c-0.707,17.682,4.149,32.208,11.815,42.588c1.693,2.292,6.57,8.676,9.892,8.518c2.668-0.128,5.644-4.786,7.418-6.595
		c2.671-2.722,4.422-4.292,7.144-7.144c30.778-30.966,60.958-63.156,92.045-94.243c2.023-2.023,4.912-5.547,7.145-5.495
		c3.51,0.082,9.531,7.433,11.54,9.342c23.896,22.714,44.836,57.457,39.29,105.783c-2.743,23.912-12.519,43.773-24.179,59.349
		c-10.475,13.99-23.835,25.571-38.192,34.895c-2.095,1.361-5.146,2.51-4.945,4.671C270.904,324.366,277.505,320.482,283.377,316.551
		z"/>
</g>
</svg>
